{
  "accessors": [
    {
      "bufferView": 2,
      "componentType": 5126,
      "count": 65532,
      "max": [
        68.085220336914062,
        64.105476379394531,
        -16.219579696655273
      ],
      "min": [
        -68.284919738769531,
        -63.780960083007812,
        -79.6875
      ],
      "type": "VEC3"
    },
    {
      "bufferView": 2,
      "byteOffset": 786384,
      "componentType": 5126,
      "count": 65532,
      "max": [
        0.99980443716049194,
        0.9985014796257019,
        0.9997747540473938
      ],
      "min": [
        -0.99907422065734863,
        -0.99984598159790039,
        -1
      ],
      "type": "VEC3"
    },
    {
      "bufferView": 3,
      "componentType": 5126,
      "count": 65532,
      "max": [
        0.99331480264663696,
        0.99783915281295776,
        0.9861222505569458,
        1
      ],
      "min": [
        -0.99973148107528687,
        -0.98515844345092773,
        -0.98367768526077271,
        -1
      ],
      "type": "VEC4"
    },
    {
      "bufferView": 1,
      "componentType": 5126,
      "count": 65532,
      "max": [
        0.99685001373291016,
        0.995930016040802
      ],
      "min": [
        0.0033400000538676977,
        0.0026599999982863665
      ],
      "type": "VEC2"
    },
    {
      "bufferView": 0,
      "componentType": 5125,
      "count": 345519,
      "max": [
        65531
      ],
      "min": [
        0
      ],
      "type": "SCALAR"
    },
    {
      "bufferView": 2,
      "byteOffset": 1572768,
      "componentType": 5126,
      "count": 65532,
      "max": [
        68.499237060546875,
        64.391250610351562,
        -2.0360500812530518
      ],
      "min": [
        -68.499237060546875,
        -64.391250610351562,
        -75.612663269042969
      ],
      "type": "VEC3"
    },
    {
      "bufferView": 2,
      "byteOffset": 2359152,
      "componentType": 5126,
      "count": 65532,
      "max": [
        0.99995994567871094,
        0.99934136867523193,
        0.99979287385940552
      ],
      "min": [
        -0.99986344575881958,
        -0.99999672174453735,
        -0.99994939565658569
      ],
      "type": "VEC3"
    },
    {
      "bufferView": 3,
      "byteOffset": 1048512,
      "componentType": 5126,
      "count": 65532,
      "max": [
        0.99144357442855835,
        0.99937897920608521,
        0.99941366910934448,
        1
      ],
      "min": [
        -0.99706429243087769,
        -0.99769175052642822,
        -0.96606236696243286,
        -1
      ],
      "type": "VEC4"
    },
    {
      "bufferView": 1,
      "byteOffset": 524256,
      "componentType": 5126,
      "count": 65532,
      "max": [
        0.99716997146606445,
        0.9874500036239624
      ],
      "min": [
        0.0022400000598281622,
        0.0032399999909102917
      ],
      "type": "VEC2"
    },
    {
      "bufferView": 0,
      "byteOffset": 1382076,
      "componentType": 5125,
      "count": 264753,
      "max": [
        65531
      ],
      "min": [
        0
      ],
      "type": "SCALAR"
    },
    {
      "bufferView": 2,
      "byteOffset": 3145536,
      "componentType": 5126,
      "count": 48247,
      "max": [
        66.367568969726562,
        51.788211822509766,
        2.4514000415802002
      ],
      "min": [
        -54.581981658935547,
        -62.481399536132812,
        -47.723930358886719
      ],
      "type": "VEC3"
    },
    {
      "bufferView": 2,
      "byteOffset": 3724500,
      "componentType": 5126,
      "count": 48247,
      "max": [
        0.99999380111694336,
        0.99997425079345703,
        0.99999737739562988
      ],
      "min": [
        -0.99933207035064697,
        -0.99999672174453735,
        -0.99971944093704224
      ],
      "type": "VEC3"
    },
    {
      "bufferView": 3,
      "byteOffset": 2097024,
      "componentType": 5126,
      "count": 48247,
      "max": [
        0.99951905012130737,
        0.99980086088180542,
        0.99816334247589111,
        1
      ],
      "min": [
        -0.99973231554031372,
        -0.99905115365982056,
        -0.99975776672363281,
        -1
      ],
      "type": "VEC4"
    },
    {
      "bufferView": 1,
      "byteOffset": 1048512,
      "componentType": 5126,
      "count": 48247,
      "max": [
        0.99563002586364746,
        0.99816000461578369
      ],
      "min": [
        0.0024900001008063555,
        0.0041499999351799488
      ],
      "type": "VEC2"
    },
    {
      "bufferView": 0,
      "byteOffset": 2441088,
      "componentType": 5125,
      "count": 228072,
      "max": [
        48246
      ],
      "min": [
        0
      ],
      "type": "SCALAR"
    }
  ],
  "asset": {
    "extras": {
      "author": "Qlone (https://sketchfab.com/Qlone)",
      "license": "CC-BY-ND-4.0 (http://creativecommons.org/licenses/by-nd/4.0/)",
      "source": "https://sketchfab.com/models/2fe05058b31e4856a241b1ca3008f7f4",
      "title": "Nike Air Max Sequent"
    },
    "generator": "Sketchfab-3.47.8",
    "version": "2.0"
  },
  "bufferViews": [
    {
      "buffer": 0,
      "byteLength": 3353376,
      "byteOffset": 0,
      "name": "floatBufferViews",
      "target": 34963
    },
    {
      "buffer": 0,
      "byteLength": 1434488,
      "byteOffset": 3353376,
      "byteStride": 8,
      "name": "floatBufferViews",
      "target": 34962
    },
    {
      "buffer": 0,
      "byteLength": 4303464,
      "byteOffset": 4787864,
      "byteStride": 12,
      "name": "floatBufferViews",
      "target": 34962
    },
    {
      "buffer": 0,
      "byteLength": 2868976,
      "byteOffset": 9091328,
      "byteStride": 16,
      "name": "floatBufferViews",
      "target": 34962
    }
  ],
  "buffers": [
    {
      "byteLength": 11960304,
      "uri": "scene.bin"
    }
  ],
  "extensionsUsed": [
    "KHR_materials_unlit"
  ],
  "images": [
    {
      "uri": "textures/material0_emissive.jpeg"
    },
    {
      "uri": "textures/material0_baseColor.jpeg"
    }
  ],
  "materials": [
    {
      "doubleSided": true,
      "emissiveFactor": [
        0,
        0,
        0
      ],
      "emissiveTexture": {
        "index": 0,
        "texCoord": 0
      },
      "extensions": {
        "KHR_materials_unlit": {}
      },
      "name": "material0",
      "pbrMetallicRoughness": {
        "baseColorFactor": [
          1,
          1,
          1,
          1
        ],
        "baseColorTexture": {
          "index": 1,
          "texCoord": 0
        },
        "metallicFactor": 0,
        "roughnessFactor": 1
      }
    }
  ],
  "meshes": [
    {
      "primitives": [
        {
          "attributes": {
            "NORMAL": 1,
            "POSITION": 0,
            "TANGENT": 2,
            "TEXCOORD_0": 3
          },
          "indices": 4,
          "material": 0,
          "mode": 4
        }
      ]
    },
    {
      "primitives": [
        {
          "attributes": {
            "NORMAL": 6,
            "POSITION": 5,
            "TANGENT": 7,
            "TEXCOORD_0": 8
          },
          "indices": 9,
          "material": 0,
          "mode": 4
        }
      ]
    },
    {
      "primitives": [
        {
          "attributes": {
            "NORMAL": 11,
            "POSITION": 10,
            "TANGENT": 12,
            "TEXCOORD_0": 13
          },
          "indices": 14,
          "material": 0,
          "mode": 4
        }
      ]
    }
  ],
  "nodes": [
    {
      "children": [
        1
      ],
      "name": "RootNode (gltf orientation matrix)",
      "rotation": [
        -0.70710678118654746,
        -0,
        -0,
        0.70710678118654757
      ]
    },
    {
      "children": [
        2
      ],
      "name": "RootNode (model correction matrix)"
    },
    {
      "children": [
        3,
        4,
        5
      ],
      "name": "model_Nike Air Max Sequent_20181129_131455839.obj.cleaner.materialmerger.gles"
    },
    {
      "mesh": 0,
      "name": ""
    },
    {
      "mesh": 1,
      "name": ""
    },
    {
      "mesh": 2,
      "name": ""
    }
  ],
  "samplers": [
    {
      "magFilter": 9729,
      "minFilter": 9987,
      "wrapS": 10497,
      "wrapT": 10497
    }
  ],
  "scene": 0,
  "scenes": [
    {
      "name": "OSG_Scene",
      "nodes": [
        0
      ]
    }
  ],
  "textures": [
    {
      "sampler": 0,
      "source": 0
    },
    {
      "sampler": 0,
      "source": 1
    }
  ]
}

